<?xml version="1.0" encoding="UTF-8"?>
<svg width="227px" height="222px" viewBox="0 0 227 222" version="1.1" xmlns="http://www.w3.org/2000/svg" xmlns:xlink="http://www.w3.org/1999/xlink">
    <!-- Generator: Sketch 52.6 (67491) - http://www.bohemiancoding.com/sketch -->
    <title>Group 3</title>
    <desc>Created with Sketch.</desc>
    <g id="Page-1" stroke="none" stroke-width="1" fill="none" fill-rule="evenodd">
        <g id="Group-3" fill="#FAFAFA">
            <polyline id="Fill-5" points="113.5 110 103 110 103 0 124 0 124 110 113.5 110"></polyline>
            <path d="M31.4147343,109.980481 C31.4147343,69.176704 54.308395,39.7184004 88.9857752,30.3625327 L89.1417797,30.3193684 L89.1417797,1 C35.8944843,10.5770848 0,51.8866936 0,109.980481 C0,177.005237 47.1160495,221.994604 113.5,222 C179.885295,221.994604 227,177.005237 227,109.980481 C227,51.8866936 191.105516,10.5770848 137.859565,1 L137.859565,30.3193684 L138.01557,30.3625327 C172.69295,39.7184004 195.586611,69.176704 195.586611,109.980481 C195.586611,160.37618 161.956881,194.099659 113.501345,194.105054 C65.0444635,194.099659 31.4147343,160.37618 31.4147343,109.980481 Z" id="Fill-6"></path>
        </g>
    </g>
</svg>